<svg xmlns="http://www.w3.org/2000/svg" width="88" height="16pt" viewBox="0 0 66 16"><g fill-rule="evenodd"><path d="M16.02 4h-1.395l-.34.422c-.062.058-.039.121.02.14l.457.2 1.297-.602a.084.084 0 0 0-.04-.16m-5.183 6.852H9.12c-.441.261-.578.34-1.2.582-.042.02-.058.062-.038.12l1.531 4.321h.879l-1.406-3.957c.914 0 3.097-.246 4.281-2.172-.355.559-1.215 1.106-2.332 1.106m2.418-6.184a.328.328 0 1 1 0-.465.697.697 0 0 0-1.176.309.704.704 0 0 0 .192.683.69.69 0 0 0 .972-.008.708.708 0 0 0 .012-.984.335.335 0 0 1 0 .465M9.898 12.5l1.196 3.375h.879l-1.258-3.535c-.238.058-.52.117-.817.16m1.18-4.21c.094-.142.184-.29.27-.438-.04-.02-.075-.016-.114.027-1.777 1.887-3.492 2.129-4.808 2.129H4.414c-.062 0-.11-.078-.07-.137a29.676 29.676 0 0 1 4.562-4.976L5.531 7.738c-.261.219-.578.36-1.02.36H.267c-.121 0-.079.101-.059.16.297.926 1.094 1.75 2.492 1.75l-.996 1.023c-.043.04-.043.14.059.14H5.55c2.738 0 4.422-1.198 5.527-2.882" fill="#00945e"/><path d="M12.27 5.195a.703.703 0 0 1 0-.992.693.693 0 0 1 .984 0 .71.71 0 0 1 0 .992.693.693 0 0 1-.984 0zm.898 4.551c1.184-1.926 1.594-4.984 1.594-4.984l-.457-.2c-.063-.019-.082-.082-.02-.14l.34-.422c-.223-.422-.98-1.105-2.098-1.105-.66 0-1.242.18-1.761.52 0 0-.758.519-1.86 1.48A29.676 29.676 0 0 0 4.344 9.87c-.04.059.008.137.07.137h2.012c1.316 0 3.031-.242 4.808-2.13.04-.042.075-.046.114-.026.039.02.043.066.023.105-.277.684-.976 2.07-2.25 2.895h1.715c1.117 0 1.976-.547 2.332-1.106zM11.43 12.07l1.343 3.805h3.747c-.782-2.332-1.618-4.52-2.395-6.531-.648 1.347-1.262 2.027-2.695 2.726zM0 15.875h3.79l1.28-4.04H1.383A106.732 106.732 0 0 0 0 15.876zm5.129-8.66l1.918-1.59c.398-1.105.816-2.23 1.254-3.172.219.5.422 1.004.644 1.547 1.051-.871 1.696-1.387 2.563-1.637-.54-1.183-.914-2-1.094-2.363H6.168c-.36.762-1.715 3.598-3.29 7.434h1.536c.277 0 .52-.04.719-.22zm47.2 5.707c-.278.32-.74.664-1.497.664-.836 0-1.293-.785-1.293-2.293 0-1.848.496-2.773 1.492-2.773.578 0 .88.043 1.297.144zm-5.95-1.508c0 3.254 1.195 4.66 3.508 4.66 1.418 0 2.394-.48 2.933-1.265l.157 1.066h2.535V6.633c-1.02-.32-2.176-.602-4.348-.602-3.09 0-4.785 1.907-4.785 5.383zm16.59-5.383c-1.617 0-2.555.5-3.23 1.266l-.2-1.067h-2.512v9.645h3.11V9.184c.258-.32.937-.664 1.496-.664.918 0 1.433.503 1.433 1.41v5.945h3.09V9.504c0-2.328-1.035-3.473-3.187-3.473zm-20.899 0c-1.273 0-2.113.301-2.75.824V2.633h-3.19v13.242h3.11V9.184c.261-.32.937-.664 1.495-.664.918 0 1.438.503 1.438 1.41v5.945h3.11V9.504c0-2.328-1.036-3.473-3.212-3.473zm-9.52 7.371c-1.534 0-2.335-.964-2.335-2.43 0-1.406.8-2.269 2.312-2.269.82 0 1.477.219 2.055.602l.438-2.633c-.836-.36-1.735-.64-3.25-.64-3.09 0-4.786 1.784-4.786 5.062 0 3.293 1.598 4.98 4.707 4.98 1.497 0 2.93-.46 3.532-.863l-.442-2.45c-.695.36-1.375.641-2.23.641zm-9.773-.48c-.257.32-.937.664-1.496.664-.914 0-1.433-.504-1.433-1.406V6.23h-3.11v6.372c0 2.328 1.035 3.472 3.211 3.472 1.613 0 2.551-.5 3.227-1.265l.203 1.066h2.512V6.23h-3.114zm0 0" fill="#ee2231"/><path d="M12.793 4.203a.325.325 0 0 0-.086.32.325.325 0 0 0 .23.235.329.329 0 0 0 .313-.551.322.322 0 0 0-.457-.004" fill="#fff"/></g></svg>