<svg width="71" height="25" xmlns="http://www.w3.org/2000/svg"><g fill="none" fill-rule="evenodd"><path d="M35.476 10.104c1.048 0 1.834.521 2.355 1.564h.07c.077-.856.185-1.588.326-2.197l.668-3.147h2.047L38.042 20h-1.617l.167-1.547h-.062c-.515.621-1.013 1.064-1.494 1.327-.48.264-.99.396-1.53.396-.837 0-1.493-.298-1.968-.892-.475-.595-.712-1.437-.712-2.527 0-1.201.21-2.323.629-3.366.419-1.043.98-1.852 1.683-2.426.703-.574 1.482-.861 2.338-.861zm-1.178 8.402c.48 0 .956-.24 1.428-.72.472-.481.85-1.108 1.134-1.882a6.759 6.759 0 0 0 .426-2.346c0-.534-.127-.961-.382-1.284-.255-.322-.643-.483-1.165-.483-.498 0-.964.226-1.397.677-.434.45-.78 1.07-1.037 1.854a7.645 7.645 0 0 0-.387 2.4c0 1.19.46 1.784 1.38 1.784zm13.236-8.402c.363 0 .68.035.95.105l-.449 1.925a3.578 3.578 0 0 0-.896-.123c-.739 0-1.398.33-1.978.993-.58.662-.984 1.53-1.213 2.601L43.017 20h-2.075l2.075-9.72h1.617l-.185 1.801h.08c.486-.703.972-1.208 1.458-1.516a2.846 2.846 0 0 1 1.547-.461zm3.243-2.215c0-.399.115-.721.343-.967.229-.246.55-.37.967-.37.31 0 .562.078.756.234.193.155.29.39.29.707 0 .416-.117.744-.352.985-.234.24-.542.36-.923.36-.31 0-.568-.076-.773-.229-.205-.152-.308-.392-.308-.72zM50.364 20H48.29l2.074-9.72h2.066L50.364 20zm4.491 0l-1.15-9.72h2.038l.484 5.255c.082.932.123 1.802.123 2.61h.061c.164-.433.37-.916.615-1.45.246-.533.437-.92.572-1.16l2.733-5.256h2.197L57.272 20h-2.417zm12.569-8.314c-.563 0-1.091.251-1.587.755-.495.504-.85 1.17-1.067 1.996h.254c1.102 0 1.963-.157 2.584-.47.621-.314.932-.758.932-1.332 0-.3-.094-.532-.281-.699-.188-.167-.466-.25-.835-.25zm-1.336 8.49c-1.154 0-2.055-.325-2.703-.976-.647-.65-.97-1.558-.97-2.724 0-1.16.226-2.24.68-3.24.454-.998 1.07-1.77 1.846-2.315a4.43 4.43 0 0 1 2.606-.817c.943 0 1.677.212 2.202.637.524.425.786 1.027.786 1.806 0 1.066-.488 1.9-1.463 2.5-.976.601-2.366.901-4.17.901h-.379l-.017.273v.255c0 .65.165 1.16.496 1.529.331.369.825.554 1.481.554.422 0 .841-.056 1.257-.167a9.018 9.018 0 0 0 1.477-.572v1.644a8.29 8.29 0 0 1-1.551.55 7.057 7.057 0 0 1-1.578.162z" fill="#EE2231"/><path d="M25.143 6.274h-2.19l-.533.662c-.094.095-.063.19.031.221l.72.315 2.035-.945a.133.133 0 0 0-.063-.253m-8.138 10.751h-2.692c-.688.41-.907.537-1.877.915-.07.028-.094.094-.063.19l2.404 6.778h1.378l-2.208-6.211c1.435 0 4.864-.384 6.72-3.406-.556.878-1.905 1.734-3.662 1.734m3.797-9.7a.51.51 0 0 1-.725 0 .518.518 0 0 1 0-.729.509.509 0 0 1 .724 0 1.087 1.087 0 0 0-1.544 0 1.106 1.106 0 0 0 0 1.556c.427.43 1.118.43 1.545 0a1.105 1.105 0 0 0-.001-1.556c.2.201.2.529 0 .73m-3.413 5.681c.147-.223.287-.452.422-.686-.063-.032-.116-.025-.18.038-2.785 2.964-5.476 3.342-7.542 3.342H6.927c-.094 0-.173-.12-.106-.215 2.446-3.408 5.161-6.07 7.156-7.807l-5.298 4.46c-.407.347-.907.567-1.596.567H.417c-.188 0-.126.158-.094.252.47 1.451 1.722 2.743 3.912 2.743L2.67 17.31c-.062.062-.062.22.094.22h5.947c4.299 0 6.942-1.881 8.677-4.523m-1.854 6.604l1.878 5.297h1.377l-1.972-5.549c-.376.094-.814.188-1.283.252" fill="#00985F"/><path d="M22.17 14.661c-1.018 2.117-1.981 3.18-4.23 4.28l2.107 5.967h5.879c-1.222-3.657-2.535-7.094-3.757-10.247m-2.913-6.51a1.106 1.106 0 0 1 0-1.555 1.087 1.087 0 0 1 1.545 0c.427.43.427 1.126 0 1.556-.427.43-1.117.43-1.545 0m1.411 7.14c1.857-3.02 2.504-7.82 2.504-7.82l-.72-.315c-.094-.031-.125-.126-.031-.22l.532-.663c-.344-.662-1.533-1.734-3.286-1.734-1.041 0-1.95.28-2.768.818 0 0-1.19.813-2.921 2.321-1.995 1.738-4.71 4.4-7.156 7.807-.067.095.012.215.106.215h3.16c2.067 0 4.758-.378 7.544-3.341.062-.064.116-.07.18-.04.062.032.07.103.04.166-.439 1.071-1.534 3.247-3.538 4.54h2.692c1.756 0 3.106-.857 3.662-1.735M0 24.908h5.947L7.96 18.57H2.17A159.358 159.358 0 0 0 0 24.908m8.054-13.589l3.004-2.49c.626-1.735 1.284-3.5 1.972-4.982.344.788.664 1.578 1.009 2.43 1.65-1.365 2.66-2.18 4.025-2.569-.846-1.86-1.435-3.14-1.716-3.708H9.68c-.562 1.198-2.69 5.644-5.163 11.666h2.41c.438 0 .814-.063 1.127-.347" fill="#E0001A"/><path d="M20.077 6.596a.52.52 0 0 0 0 .73.51.51 0 0 0 .725 0c.2-.201.2-.529-.001-.73a.509.509 0 0 0-.724 0" fill="#FFF"/></g></svg>