<svg xmlns="http://www.w3.org/2000/svg" viewBox="0 0 153.1 22"><path d="M8.5 13.4l1.8-4.6H3.9c-.5 0-1-.4-1-1s.4-1 1-1h7.2l2.4-6c.2-.5.8-.8 1.3-.6s.8.8.6 1.3l-2.1 5.2h4.5l2.4-6c.2-.5.8-.8 1.3-.6s.8.8.6 1.3L20 6.6h3.8c.5 0 1 .4 1 1s-.4 1-1 1H19l-1.8 4.6H21c.5 0 1 .4 1 1s-.4 1-1 1h-4.6l-2.4 6c-.2.5-.8.8-1.3.6-.5-.2-.8-.8-.6-1.3l2.1-5.2H9.8l-2.4 6c-.2.5-.8.8-1.3.6-.5-.2-.8-.8-.6-1.3l2.1-5.2H1.2c-.5 0-1-.4-1-1s.4-1 1-1h7.3zm2.1 0h4.5l1.8-4.6h-4.5l-1.8 4.6zm27.9 5l-1.2-3.7h-5.7l-1.2 3.7h-3.1l5.2-15.2h3.8l5.2 15.2h-3zm-6.2-5.9h4.3l-1.3-4.2c0-.1-.1-.4-.3-1s-.3-1-.4-1.3h-.2l-.7 2.3-1.4 4.2zM53 7.6v10.8h-2.4l-.2-1.3h-.1c-1.1 1-2.3 1.5-3.6 1.5-2.5 0-3.7-1.4-3.7-4.3V7.6h3v6.6c0 1.4.6 2 1.8 2 .9 0 1.6-.3 2.2-1V7.6h3zm7.7 11c-1.7 0-3.1-.5-4.1-1.5s-1.5-2.4-1.5-4.1.5-3.1 1.5-4.1 2.4-1.5 4.2-1.5c1.1 0 2.1.2 3.1.6l-.4 2.3c-.7-.3-1.5-.5-2.4-.5-1 0-1.7.3-2.2.9-.5.6-.7 1.4-.7 2.4s.2 1.8.7 2.4c.5.6 1.2.9 2.2.9s1.8-.2 2.4-.5l.4 2.2c-.8.3-1.9.5-3.2.5zm5.2-.2V2.6h3v6h.1c.9-.8 2-1.2 3.2-1.2 2.5 0 3.7 1.4 3.7 4.3v6.7h-3v-6.6c0-.7-.1-1.2-.4-1.6-.3-.3-.7-.5-1.3-.5-.9 0-1.6.3-2.2.9v7.7h-3.1v.1zm16.5.2c-1.4 0-2.4-.5-3.2-1.4-.8-.9-1.2-2.2-1.2-3.8 0-1.8.6-3.2 1.7-4.3 1.2-1.1 2.6-1.7 4.4-1.7 1.4 0 2.8.3 4.1.9v7.5l.1 2.6h-2.5l-.3-1.3h-.1c-.7 1-1.7 1.5-3 1.5zm.8-2.2c.9 0 1.6-.4 2.1-1.3V9.8c-.4-.1-.8-.2-1.2-.2-.9 0-1.7.3-2.2 1-.6.7-.9 1.5-.9 2.6 0 1 .2 1.7.6 2.3.4.6.9.9 1.6.9zm14.2-9c2.5 0 3.7 1.4 3.7 4.3v6.7h-3v-6.6c0-.7-.1-1.2-.4-1.6-.3-.3-.7-.5-1.3-.5-.9 0-1.6.3-2.2.9v7.7h-3V7.6h2.4l.2 1.3h.1c1.1-1 2.3-1.5 3.5-1.5zm21 10.6l-1.1 1.8c-1.3-.8-2.6-1.7-4-2.7-1.2 1-2.7 1.5-4.5 1.5-1.7 0-3-.3-4-1s-1.5-1.6-1.5-2.6c0-.9.2-1.6.6-2.3.4-.7 1.1-1.4 2.1-2.1-1-1.4-1.6-2.6-1.6-3.8 0-1.1.4-2 1.1-2.7s1.8-1.1 3.1-1.1c1 0 2.1.2 3.1.7l-.8 2c-.8-.4-1.6-.6-2.3-.6-.6 0-1.1.2-1.5.5-.3.3-.5.8-.5 1.3 0 1.6 2 4 5.9 7.1.4-.7.6-1.6.5-2.6V9.9h4.8v1.9h-2.4c0 1.3-.4 2.6-1 3.7 1.4.8 2.7 1.6 4 2.5zm-9.5-1.6c1 0 1.8-.2 2.5-.7-1.5-1.1-2.8-2.3-3.9-3.5-1 .7-1.4 1.5-1.4 2.4 0 .5.2 1 .7 1.3.5.3 1.2.5 2.1.5zm10.8 2V3.2h3l4.6 8.2h.1l4.5-8.2h3v15.2H132V8l-4 7.3h-1.2L122.7 8v10.4h-3zm22.5-11c1.6 0 2.9.5 3.9 1.5s1.5 2.4 1.5 4c0 1.7-.5 3-1.5 4.1s-2.3 1.6-3.9 1.6-2.9-.5-3.9-1.5-1.5-2.4-1.5-4c0-1.7.5-3 1.5-4.1s2.3-1.6 3.9-1.6zm0 2.2c-.7 0-1.3.3-1.8.9-.5.6-.7 1.4-.7 2.5 0 1 .2 1.8.7 2.5.5.6 1.1.9 1.8.9s1.3-.3 1.8-.9c.5-.6.7-1.4.7-2.4s-.2-1.8-.7-2.4c-.4-.7-1-1.1-1.8-1.1zm9.1-4c-.5 0-1-.2-1.3-.5s-.5-.7-.5-1.2.2-.9.5-1.2c.3-.3.8-.5 1.3-.5s1 .2 1.3.5.5.7.5 1.2-.2.9-.5 1.2-.8.5-1.3.5zm-1.5 12.8V7.6h3v10.8h-3z"/></svg>