<svg xmlns="http://www.w3.org/2000/svg" viewBox="0 0 32 32"><path fill="#4A835B" d="M28.299 9.806h-2.212l-.537.664c-.095.095-.063.189.031.221l.727.316 2.054-.948c.127-.064.095-.253-.063-.253z"/><ellipse transform="rotate(-45.082 23.49 10.553)" fill="#FFF" cx="23.492" cy="10.553" rx=".613" ry=".613"/><path fill="#00985F" d="M20.088 20.589h-2.722c-.697.41-.919.538-1.9.916-.068.029-.094.097-.063.19l2.433 6.805h1.329l-2.23-6.235h.06c1.452 0 4.919-.386 6.795-3.417-.562.88-1.927 1.741-3.702 1.741zm.386-4.032c.15-.227.292-.456.427-.69-.063-.034-.118-.027-.181.039-2.816 2.973-5.539 3.354-7.627 3.354H9.898c-.096 0-.176-.123-.109-.217 2.474-3.419 5.22-6.091 7.236-7.837l-5.355 4.478c-.412.347-.919.569-1.616.569h-6.74c-.19 0-.128.159-.096.253.475 1.456 1.743 2.754 3.957 2.754l-1.582 1.613c-.063.063-.063.222.094.222h6.014c4.346 0 7.018-1.888 8.773-4.538zm-1.779 6.889l1.804 5.054h1.331l-1.905-5.317c-.423.121-.842.21-1.23.263zm9.621-13.65H26.1l-.538.665c-.094.096-.063.19.031.222l.728.316 2.057-.948c.128-.065.094-.255-.062-.255zm-4.391 1.191a.613.613 0 1 1-.003-.87 1.103 1.103 0 1 0 .007.006.613.613 0 0 1-.004.864z"/><ellipse transform="rotate(-45.001 23.532 10.526)" fill="#FFF" cx="23.532" cy="10.525" rx=".517" ry=".517"/><path fill="#E0001A" d="M23.79 18.848c1.878-3.031 2.532-7.849 2.532-7.849l-.728-.316c-.094-.031-.125-.125-.031-.222l.537-.665c-.347-.663-1.55-1.739-3.323-1.739-1.051 0-1.972.28-2.797.82 0 0-1.203.815-2.954 2.329-2.016 1.746-4.762 4.418-7.236 7.837-.067.094.012.217.109.217h3.195c2.088 0 4.81-.381 7.627-3.354.063-.065.118-.072.181-.039.065.031.072.101.041.164-.444 1.075-1.55 3.26-3.576 4.557h2.722c1.774.001 3.139-.86 3.701-1.74zm-1.425-7.167a1.103 1.103 0 1 1 1.559-1.562 1.103 1.103 0 0 1-1.559 1.562zm2.548 7.861c-.895 1.447-2.17 2.527-3.793 3.219l2.042 5.739h5.944c-1.189-3.532-2.462-6.858-3.658-9.922-.166.332-.344.656-.535.964zM2.894 28.5h6.014l1.946-6.086H4.987A157.883 157.883 0 0 0 2.894 28.5zm7.923-13.824l3.472-2.903c.569-1.548 1.162-3.091 1.78-4.413.309.704.6 1.411.907 2.16 1.341-1.107 2.221-1.707 2.264-1.736l.019-.012a6.264 6.264 0 0 1 1.782-.805c-.791-1.728-1.346-2.924-1.618-3.467h-6.74c-.562 1.184-2.657 5.529-5.107 11.434h2.479c.403 0 .605-.125.762-.258z"/></svg>