<svg width="150" height="110" xmlns="http://www.w3.org/2000/svg"><g fill="none" fill-rule="evenodd"><path d="M106.023 51.796l-5.452-9.842h-8.473l2.869 9.842h11.056zm1.03 2.954H95.398v2.477c0 .1-.001.2-.004.3.204 3.04 2.74 5.452 5.826 5.452 3.215 0 5.835-2.624 5.835-5.85V54.75zm-62.077-2.954h11l2.914-9.842h-8.464l-5.45 9.842zm-1.03 2.954v2.38c0 3.225 2.62 5.849 5.835 5.849 3.087 0 5.622-2.411 5.826-5.453a9.826 9.826 0 0 1-.004-.298l.035-2.478H43.946zm15.103-2.954h14.937v-9.84H61.962l-2.913 9.84zm14.937 2.954H58.55v2.478c0 4.266 3.462 7.74 7.716 7.74 4.255 0 7.72-3.474 7.72-7.74V54.75zm17.965-2.954l-2.913-9.842H77.014v9.842H91.95zm.5 2.954H77.013v2.477c0 4.266 3.462 7.74 7.717 7.74 4.254 0 7.72-3.474 7.72-7.74V54.75zM75.5 62.576c-1.848 3.194-5.295 5.346-9.235 5.346-4.047 0-7.577-2.275-9.382-5.617a8.776 8.776 0 0 1-7.482 3.62v38.12h53.759v-38.33a8.776 8.776 0 0 1-9.045-3.411c-1.806 3.342-5.336 5.617-9.385 5.617-3.937 0-7.384-2.152-9.23-5.345zM74.066 39h28.238L110 52.887v4.243a8.808 8.808 0 0 1-3.893 7.31V107H46.456V65.277A8.818 8.818 0 0 1 41 57.13v-4.243L48.693 39h14.158l11.216.001zm-6.63 42.23c-2.617 0-5.004-1.775-6.723-4.998l2.42-1.295c1.198 2.254 2.766 3.545 4.304 3.545 1.535 0 3.103-1.291 4.298-3.545l2.42 1.295c-1.716 3.223-4.1 4.998-6.718 4.998zm18.633.3c-2.62 0-5.004-1.775-6.722-4.998l2.42-1.294c1.197 2.253 2.765 3.544 4.302 3.544 1.535 0 3.102-1.291 4.3-3.544l2.42 1.294c-1.719 3.223-4.103 4.997-6.72 4.997zm3.593 15.486c-1.373-5.936-6.583-10.083-12.67-10.083-6.007 0-11.2 4.074-12.637 9.912l-2.712-.673A15.78 15.78 0 0 1 76.992 84.13c7.39 0 13.724 5.039 15.396 12.25l-2.725.636z" fill="#474955"/><path d="M117.812 43.16L110 46l2.807-6.804A21.425 21.425 0 0 1 107 24.5C107 12.626 116.626 3 128.5 3S150 12.626 150 24.5 140.374 46 128.5 46c-3.89 0-7.54-1.033-10.688-2.84z" fill="#00C179"/><path d="M123.387 25.611c-.245.26-.577.389-.997.389-.42 0-.76-.13-1.023-.389-.245-.278-.367-.648-.367-1.111 0-.463.122-.824.367-1.083.263-.278.603-.417 1.023-.417.42 0 .752.139.997.417.262.259.393.62.393 1.083 0 .463-.13.833-.393 1.111zm7.03-1.111c0 .444-.132.806-.394 1.083-.262.278-.603.417-1.023.417-.42 0-.76-.13-1.023-.389-.245-.278-.367-.648-.367-1.111 0-.463.122-.824.367-1.083.262-.278.603-.417 1.023-.417.42 0 .76.139 1.023.417.262.277.393.639.393 1.083zm6.19 1.111c-.245.26-.577.389-.997.389-.42 0-.76-.13-1.023-.389-.245-.278-.367-.648-.367-1.111 0-.463.122-.824.367-1.083.262-.278.603-.417 1.023-.417.42 0 .752.139.997.417.262.259.393.62.393 1.083 0 .463-.131.833-.393 1.111z" fill="#FFF"/></g></svg>