<?xml version="1.0" encoding="UTF-8"?>
<svg width="40px" height="40px" viewBox="0 0 40 40" version="1.1" xmlns="http://www.w3.org/2000/svg" xmlns:xlink="http://www.w3.org/1999/xlink">
    <!-- Generator: Sketch 47.1 (45422) - http://www.bohemiancoding.com/sketch -->
    <title>UI-icons/Font/Drive/apple</title>
    <desc>Created with Sketch.</desc>
    <defs>
        <path d="M26,21 C26,22.7488243 27.2980526,24.2131866 29.0248287,24.4496221 C29.3284366,24.491193 29.5235555,24.7936038 29.4363051,25.087361 C28.3357418,28.7927696 25.937707,32 24,32 C22.9785089,32 22.2373142,31.8223407 21.3924093,31.459409 C21.284203,31.4129287 20.9411848,31.2597773 20.9430711,31.2606076 C20.7855457,31.1912666 20.6716061,31.1447917 20.5641575,31.1072685 C20.3551708,31.0342861 20.1798853,31 20,31 C19.8201147,31 19.6448292,31.0342861 19.4358425,31.1072685 C19.3283939,31.1447917 19.2144543,31.1912666 19.0569289,31.2606076 C19.0588152,31.2597773 18.715797,31.4129287 18.6075907,31.459409 C17.7626858,31.8223407 17.0214911,32 16,32 C13.3460059,32 10,26.0937146 10,21.5 C10,17.3908946 12.9782763,14 15.5,14 C16.2660311,14 16.8898025,14.1491503 18.0142274,14.5259051 C19.1396911,14.9030081 19.5089878,15 20,15 C20.4910122,15 20.8603089,14.9030081 21.9857726,14.5259051 C23.1101975,14.1491503 23.7339689,14 24.5,14 C25.827404,14 27.5899026,15.1840824 28.7085648,16.9381449 C28.8848505,17.2145607 28.7518808,17.5829896 28.4396986,17.6831125 C26.9953482,18.146344 26,19.4743124 26,21 Z M25,21 C25,19.2612072 26.0023631,17.7231987 27.5165666,16.9799159 C26.5828708,15.7716531 25.3373838,15 24.5,15 C23.8743228,15 23.3298985,15.1301776 22.3034774,15.4740949 C21.0631899,15.8896711 20.6431128,16 20,16 C19.3568872,16 18.9368101,15.8896711 17.6965226,15.4740949 C16.6701015,15.1301776 16.1256772,15 15.5,15 C13.5615132,15 11,17.9163921 11,21.5 C11,25.6147468 14.0508328,31 16,31 C16.8732589,31 17.4844574,30.8534999 18.2129093,30.540591 C18.3133538,30.4974447 18.6501979,30.34705 18.654045,30.3453565 C18.8335213,30.2663529 18.9692863,30.2109757 19.1061478,30.1631809 C19.4144806,30.0555047 19.6982456,30 20,30 C20.3017544,30 20.5855194,30.0555047 20.8938522,30.1631809 C21.0307137,30.2109757 21.1664787,30.2663529 21.345955,30.3453565 C21.3498021,30.34705 21.6866462,30.4974447 21.7870907,30.540591 C22.5155426,30.8534999 23.1267411,31 24,31 C25.2698673,31 27.2671919,28.4181171 28.3125158,25.3230812 C26.3872775,24.7993964 25,23.0523409 25,21 Z M24.5,8 C24.7761424,8 25,8.22385763 25,8.5 C25,11.5381424 22.5381424,14 19.5,14 C19.2238576,14 19,13.7761424 19,13.5 C19,10.4618576 21.4618576,8 24.5,8 Z M20.030976,12.969024 C22.0923169,12.726874 23.726874,11.0923169 23.969024,9.03097601 C21.9076831,9.27312598 20.273126,10.9076831 20.030976,12.969024 Z" id="path-1"></path>
    </defs>
    <g id="Charte-Graphique" stroke="none" stroke-width="1" fill="none" fill-rule="evenodd">
        <g id="UI-icons/Font/Drive/apple">
            <mask id="mask-2" fill="white">
                <use xlink:href="#path-1"></use>
            </mask>
            <use id="Mask" fill="#35343A" fill-rule="nonzero" xlink:href="#path-1"></use>
        </g>
    </g>
</svg>