<?xml version="1.0" encoding="UTF-8"?>
<svg width="40px" height="40px" viewBox="0 0 40 40" version="1.1" xmlns="http://www.w3.org/2000/svg" xmlns:xlink="http://www.w3.org/1999/xlink">
    <!-- Generator: Sketch 47.1 (45422) - http://www.bohemiancoding.com/sketch -->
    <title>UI-icons/Font/Drive/facebook</title>
    <desc>Created with Sketch.</desc>
    <defs>
        <path d="M21.8343837,30.8253968 L17.6851109,30.8253968 C17.4155253,30.8253968 17.1967313,30.61086 17.1967313,30.34652 L17.1967313,21.0103367 L15.4883796,21.0103367 C15.218794,21.0103367 15,20.7957999 15,20.5314599 L15,16.9408412 C15,16.6765012 15.218794,16.4619643 15.4883796,16.4619643 L17.1967313,16.4619643 L17.1967313,14.6652184 C17.1967313,13.5705059 17.5376202,10 21.922292,10 L25.0098276,10.0134086 C25.2784364,10.0143663 25.4962537,10.2279454 25.4962537,10.4922854 L25.4962537,13.8281416 C25.4962537,14.0924816 25.2774596,14.3070185 25.0078741,14.3070185 L22.8140731,14.3070185 C22.7935612,14.3070185 22.3227633,14.3137227 22.3227633,14.8749664 L22.3227633,16.4619643 L25.1778302,16.4619643 C25.31653,16.4619643 25.4483925,16.5184718 25.5402079,16.6199937 C25.633,16.7196001 25.6779309,16.8546434 25.6642563,16.9896866 L25.288204,20.5803053 C25.2628083,20.8245325 25.052805,21.0103367 24.8027547,21.0103367 L22.3227633,21.0103367 L22.3227633,30.34652 C22.3227633,30.61086 22.1039692,30.8253968 21.8343837,30.8253968 Z M18.2060091,29.8095238 L21.3689979,29.8095238 L21.3689979,20.5307299 C21.3689979,20.2680147 21.5871351,20.0547966 21.8559113,20.0547966 L24.3752007,20.0547966 L24.6507937,17.4381158 L21.8559113,17.4381158 C21.5871351,17.4381158 21.3689979,17.2248977 21.3689979,16.9621826 L21.3689979,14.9090067 C21.3689979,13.9247768 22.1227397,13.3926835 22.8326594,13.3926835 L24.5329606,13.3926835 L24.5329606,11.0272954 L21.941608,11.015873 C18.6919486,11.015873 18.2060091,13.325101 18.2060091,14.700548 L18.2060091,16.9621826 C18.2060091,17.2248977 17.9878719,17.4381158 17.7190958,17.4381158 L16.015873,17.4381158 L16.015873,20.0547966 L17.7190958,20.0547966 C17.9878719,20.0547966 18.2060091,20.2680147 18.2060091,20.5307299 L18.2060091,29.8095238 Z" id="path-1"></path>
    </defs>
    <g id="Charte-Graphique" stroke="none" stroke-width="1" fill="none" fill-rule="evenodd">
        <g id="UI-icons/Font/Drive/facebook">
            <mask id="mask-2" fill="white">
                <use xlink:href="#path-1"></use>
            </mask>
            <use id="Mask" fill="#35343A" xlink:href="#path-1"></use>
        </g>
    </g>
</svg>