<?xml version="1.0" encoding="UTF-8"?>
<svg width="40px" height="40px" viewBox="0 0 40 40" version="1.1" xmlns="http://www.w3.org/2000/svg" xmlns:xlink="http://www.w3.org/1999/xlink">
    <!-- Generator: Sketch 47.1 (45422) - http://www.bohemiancoding.com/sketch -->
    <title>UI-icons/Font/Drive/instagram</title>
    <desc>Created with Sketch.</desc>
    <defs>
        <path d="M15.4795589,10.0425678 C12.4811339,10.0425678 10.0425678,12.4821765 10.0425678,15.4795589 L10.0425678,25.1921206 C10.0425678,28.189503 12.4811339,30.6291117 15.4795589,30.6291117 L25.1869078,30.6291117 C28.1853328,30.6291117 30.6238989,28.189503 30.6238989,25.1921206 L30.6238989,15.4795589 C30.6238989,12.4821765 28.1853328,10.0425678 25.1869078,10.0425678 L15.4795589,10.0425678 Z M25.1869078,31.6716795 L15.4795589,31.6716795 C11.906679,31.6716795 9,28.7650005 9,25.1921206 L9,15.4795589 C9,11.906679 11.906679,9 15.4795589,9 L25.1869078,9 C28.7597876,9 31.6664667,11.906679 31.6664667,15.4795589 L31.6664667,25.1921206 C31.6664667,28.7650005 28.7597876,31.6716795 25.1869078,31.6716795 Z M20.2027038,25.7381134 C23.1177234,25.7381134 25.4895652,23.3704419 25.4895652,20.4606351 C25.4895652,17.5508284 23.1177234,15.1831569 20.2027038,15.1831569 C17.2876843,15.1831569 14.9158425,17.5508284 14.9158425,20.4606351 C14.9158425,23.3704419 17.2876843,25.7381134 20.2027038,25.7381134 Z M20.2027038,16.2257247 C22.5432686,16.2257247 24.4469974,18.1252832 24.4469974,20.4606351 C24.4469974,22.795987 22.5432686,24.6955455 20.2027038,24.6955455 C17.8621391,24.6955455 15.9584103,22.795987 15.9584103,20.4606351 C15.9584103,18.1252832 17.8621391,16.2257247 20.2027038,16.2257247 Z M27.6167163,14.1222399 C27.6167163,13.5467425 27.1496459,13.0796721 26.5741485,13.0796721 C25.998651,13.0796721 25.5315807,13.5467425 25.5315807,14.1222399 C25.5315807,14.6987799 25.998651,15.1648077 26.5741485,15.1648077 C27.1496459,15.1648077 27.6167163,14.6987799 27.6167163,14.1222399 Z" id="path-1"></path>
    </defs>
    <g id="Charte-Graphique" stroke="none" stroke-width="1" fill="none" fill-rule="evenodd">
        <g id="UI-icons/Font/Drive/instagram">
            <mask id="mask-2" fill="white">
                <use xlink:href="#path-1"></use>
            </mask>
            <use id="Mask" fill="#35343A" xlink:href="#path-1"></use>
        </g>
    </g>
</svg>