<svg xmlns="http://www.w3.org/2000/svg" xmlns:xlink="http://www.w3.org/1999/xlink" viewBox="0 0 28.34646 28.34646"><defs><style>.a,.b{fill:none;}.a{clip-rule:evenodd;}.c{fill:#ce001f;}.d{clip-path:url(#a);}.e{clip-path:url(#b);}.f{isolation:isolate;}.g{clip-path:url(#c);}.h{fill:#fff;}.i{clip-path:url(#f);}</style><clipPath id="a"><path class="a" d="M21.30768,9.44731H19.936A2.40152,2.40152,0,0,0,17.8772,8.37789a3.10258,3.10258,0,0,0-1.73345.50451,21.97408,21.97408,0,0,0-1.82836,1.43122l-3.31647,2.74992a1.4864,1.4864,0,0,1-.99984.35055H5.82364c-.117,0-.07879.09652-.06029.15574A2.431,2.431,0,0,0,8.21489,15.2604l-.97954.99125a.07812.07812,0,0,0,.0585.13679h3.723a6.079,6.079,0,0,0,5.43553-2.789c.09073-.13856.17967-.27949.26324-.42338a.06968.06968,0,0,1,.02507.10125A6.20837,6.20837,0,0,1,14.5273,16.077a6,6,0,0,1-1.17593.56491c-.04536.01658-.06029.05743-.04059.11606l1.50543,4.17995.074.20548h.86315l-.074-.20548L14.29689,17.1073a4.92944,4.92944,0,0,0,4.20827-2.09915,14.71487,14.71487,0,0,0,1.5687-4.82125L21.34708,9.603A.08141.08141,0,0,0,21.30768,9.44731Zm-2.71895,1.15705a.68553.68553,0,0,1-.96582,0,.66924.66924,0,0,1,0-.95809.68333.68333,0,0,1,.82554-.10481.38133.38133,0,1,0,.28712.36772.311.311,0,0,0-.006-.05625A.67191.67191,0,0,1,18.58873,10.60436ZM17.328,20.93849l.07342.20488h-.862l-.074-.20488L15.29016,17.671a7.33611,7.33611,0,0,0,.80464-.15455Z"/></clipPath><clipPath id="b"><rect class="b" x="5.74234" y="8.37789" width="15.71385" height="12.79035"/></clipPath><clipPath id="c"><rect class="b" x="3.91514" y="6.5507" width="19.36824" height="16.44473"/></clipPath><clipPath id="f"><rect class="b" x="5.74234" y="8.37789" width="15.63327" height="12.79035"/></clipPath></defs><title>Mdd</title><circle class="c" cx="14.17318" cy="14.22551" r="12.63976"/><g class="d"><g class="e"><g class="f"><g class="g"><g class="e"><rect class="h" x="3.91514" y="6.5507" width="19.30775" height="16.41986"/></g><g class="e"><g class="i"><rect class="h" x="3.91514" y="6.5507" width="19.36824" height="16.44473"/></g></g></g></g></g></g></svg>