<svg viewBox="0 0 60 60" version="1.1" xmlns="http://www.w3.org/2000/svg" xmlns:xlink="http://www.w3.org/1999/xlink">
    <title>Bio</title>
    <rect id="Rectangle-4" fill="#90CD6E" x="0" y="0" width="60" height="60"></rect>
    <path d="M22.2110831,19.3610476 C23.0182881,19.4185066 23.4154685,19.4559217 24.2063714,19.541442 C24.4632542,19.5708397 24.707293,19.4692843 24.7507655,19.3133879 C24.888593,18.8341178 24.9587418,18.5927011 25.0936053,18.1089768 C25.1380658,17.9512988 25.2674952,17.966443 25.3776585,18.1432741 C25.7254384,18.683121 25.8953763,18.955717 26.22636,19.5026907 C26.3360292,19.6817488 26.6299625,19.8527894 26.8779533,19.8977767 C27.6174795,20.0336293 27.8872065,20.0942061 28.7818506,20.3097886 C29.0283593,20.3694746 29.0683738,20.4705846 28.8895438,20.5271527 C28.3387276,20.6990842 28.0551684,20.7458531 27.4875561,20.9547543 C27.304774,21.0206762 27.2380833,21.2242323 27.3393544,21.4046267 C27.6451438,21.9551637 27.7898875,22.2495852 28.0724586,22.839319 C28.1663197,23.0321851 28.0773987,23.0535652 27.8748564,22.8918784 C27.2538915,22.3992458 26.9308118,22.2148426 26.2782305,21.8019398 C26.0608681,21.6656418 25.7353185,21.615755 25.5500664,21.6865765 C24.9938162,21.9048315 24.7161851,22.0580553 24.1510428,22.2865549 C23.9657907,22.3627215 23.8546394,22.2981358 23.90157,22.1466936 C24.0473016,21.6790044 24.1199204,21.4046267 24.2617,20.9378284 C24.3076425,20.7854953 24.1609229,20.558332 23.9351623,20.4376236 C23.2351565,20.0616906 22.8799665,19.8808508 22.1616825,19.5334245 C21.9285119,19.4193974 21.9497541,19.3432309 22.2110831,19.3610476 Z M14.229276,24.2548691 C15.1432489,24.0554485 15.4252292,24.0084107 16.2904068,23.8790568 C16.5489278,23.8408386 16.8112024,23.6791462 16.873604,23.5017746 C17.0617473,22.9515305 17.1504233,22.6791033 17.3348131,22.1371889 C17.3948688,21.9622671 17.5215488,21.9539375 17.6158551,22.1161199 C17.9142569,22.6266758 18.0611119,22.8839137 18.3491916,23.4047591 C18.4434978,23.5733112 18.7240706,23.7217742 18.9680469,23.7065849 C19.781145,23.6556273 19.9688191,23.6061397 20.7941159,23.5640016 C21.0319928,23.5512622 21.0620207,23.6487676 20.893114,23.7629323 C20.2601831,24.1916621 20.067348,24.3670738 19.5066716,24.7198572 C19.3269737,24.8330419 19.2378285,25.0442219 19.3288504,25.2220835 C19.6019162,25.7532185 19.7370416,26.0227058 19.9997853,26.5724599 C20.0870538,26.7537514 19.9927475,26.803239 19.7900595,26.6841746 C19.1754268,26.3215917 18.8629495,26.1540196 18.2220424,25.8502339 C18.0099707,25.7468488 17.6777875,25.763018 17.4821373,25.8850223 C16.8895563,26.2549549 16.6915602,26.3882286 15.8948836,26.909074 C15.6743665,27.0531273 15.5655156,27.0305883 15.6480922,26.8086288 C15.9061441,26.1182513 15.9952893,25.9516591 16.207361,25.3999451 C16.2763312,25.2206136 16.1426134,25.0064937 15.9192812,24.9349571 C15.227233,24.7134875 14.8758133,24.6194119 14.1556139,24.4660491 C13.9224288,24.4170515 13.9548026,24.320036 14.229276,24.2548691 Z M10.2701799,31.8208857 C11.1453925,31.752833 11.5662813,31.7374512 12.380524,31.7351207 C12.6455462,31.7341884 12.9661297,31.598083 13.0979033,31.4265529 C13.5084665,30.8989112 13.7105521,30.6378871 14.1127565,30.1209661 C14.243055,29.9540971 14.3679449,29.9606228 14.3944963,30.1358818 C14.4692336,30.6770407 14.5061105,30.9511161 14.5670804,31.5020634 C14.5867481,31.679653 14.8040762,31.8409287 15.0405802,31.8721583 C15.8646568,31.9812291 15.9964304,32.0022043 16.8278823,32.1480981 C17.0520941,32.1877178 17.0575027,32.2828052 16.8426331,32.3522563 C16.1778649,32.5615417 15.8381054,32.6790025 15.1399021,32.9330349 C14.914707,33.0155372 14.711638,33.2360094 14.7150798,33.417794 C14.7190134,33.9757331 14.7190134,34.2572662 14.711638,34.8254598 C14.7072127,35.013304 14.5896982,35.0557204 14.4456323,34.9224116 C14.0060593,34.5215532 13.7798807,34.325319 13.3068726,33.9505629 C13.1510061,33.8298392 12.8176386,33.8135252 12.5673671,33.9146721 C11.8052438,34.227901 11.4177902,34.3957022 10.6345241,34.7434237 C10.3763855,34.8576217 10.2864058,34.8072813 10.4407972,34.6259628 C10.9024965,34.0768799 11.1345753,33.8042029 11.5884074,33.2649085 C11.7398487,33.0882511 11.7177226,32.856126 11.54268,32.7535808 C10.9939513,32.4352246 10.7102447,32.2883986 10.1084131,32.0189844 C9.91370291,31.9332193 9.98942355,31.8427931 10.2701799,31.8208857 Z M23.8827325,40.2972569 C23.3466118,40.6110098 23.0530983,40.816572 22.4834987,41.2272262 C22.2986769,41.3603477 22.1844819,41.6472882 22.2317192,41.8627287 C22.374807,42.5217509 22.4431406,42.8576124 22.5788906,43.5603813 C22.6233762,43.7908744 22.5270671,43.8656671 22.3660933,43.7254897 C21.8767513,43.295079 21.6313924,43.0899871 21.1402159,42.6939152 C20.9778663,42.5622048 20.6893976,42.5786686 20.4990725,42.730606 C19.9189247,43.1882995 19.6281629,43.4253782 19.0393015,43.9112954 C18.8448489,44.073111 18.7641327,44.006315 18.8549384,43.7697067 C19.1333176,43.0490628 19.2699848,42.6990896 19.5387331,42.0151364 C19.6281629,41.7912288 19.5644155,41.5141666 19.3965625,41.39892 C18.8847483,41.0465948 18.6251724,40.8772529 18.1032687,40.5573848 C17.9335812,40.4538981 17.9780669,40.3461779 18.1995778,40.3160726 C18.8893345,40.2266977 19.2296267,40.1914182 19.9056249,40.1359117 C20.1253014,40.1170959 20.373412,39.932231 20.4550454,39.7247871 C20.7137042,39.0761136 20.8416577,38.7595383 21.0879339,38.1513186 C21.1681914,37.9518715 21.2755073,37.9504603 21.3273308,38.1419107 C21.4850943,38.7346074 21.5621416,39.0361301 21.7166948,39.6570504 C21.7657665,39.8579087 21.98315,40.0192539 22.1959472,40.0154907 C22.8563525,40.0009085 23.1865552,39.9867967 23.8276987,40.0639413 C24.036827,40.0865203 24.0560889,40.1965925 23.8827325,40.2972569 Z M31.9133795,41.6351447 C31.4762452,41.7824137 31.257252,41.8623847 30.8141529,42.0258228 C30.6688675,42.0786998 30.6019766,42.2718539 30.6658851,42.4545199 C30.859741,43.0077621 30.9598644,43.2839462 31.1635195,43.8389364 C31.2316886,44.0211654 31.1575547,44.0543774 30.9982095,43.9097304 C30.5184695,43.4740412 30.282434,43.2516082 29.8171799,42.801935 C29.6620953,42.653792 29.4183908,42.582124 29.2692709,42.6468 C28.8189288,42.841702 28.5909884,42.9439601 28.1265865,43.1668301 C27.9727799,43.2406832 27.8952376,43.1633341 27.9527553,42.9964001 C28.1321252,42.4929759 28.2181887,42.2508778 28.3881854,41.7754217 C28.4439988,41.6181016 28.3668825,41.3698856 28.2181887,41.2199945 C27.763586,40.7559004 27.538202,40.5221053 27.0912684,40.0580111 C26.9476872,39.9068091 26.9766591,39.8303341 27.156029,39.8884551 C27.7124592,40.0684991 27.9906743,40.1589582 28.5449743,40.3429352 C28.7234921,40.4032413 28.9126613,40.3306992 28.9659184,40.1860522 C29.12782,39.734194 29.2074926,39.516131 29.3638555,39.0852488 C29.4137041,38.9480308 29.5010458,38.9794948 29.5581374,39.1577908 C29.735377,39.706226 29.8257011,39.9819731 30.0084795,40.5374003 C30.0677014,40.7165704 30.2632614,40.9145314 30.4439095,40.9730894 C31.002044,41.1614365 31.279407,41.2540805 31.8392456,41.4402426 C32.0198937,41.5005486 32.0535522,41.5870746 31.9133795,41.6351447 Z M40.8950523,38.6222056 C40.3545713,38.8128173 40.1029113,38.9126821 39.5798348,39.1011228 C39.4114343,39.1610417 39.3460497,39.3525217 39.4387171,39.5279365 C39.7153079,40.0580887 39.8578368,40.3229477 40.1527729,40.8452843 C40.2477922,41.0150546 40.1617104,41.0528295 39.959912,40.9199659 C39.3460497,40.5179012 39.0449985,40.3164347 38.463123,39.8327414 C38.2712028,39.6738261 37.9828522,39.5800399 37.8172741,39.629104 C37.318658,39.7754277 37.0698204,39.8470699 36.5740267,39.9973014 C36.4098597,40.0463654 36.3157812,39.9643026 36.36235,39.8153736 C36.5128756,39.3633766 36.5871976,39.1406345 36.7358417,38.6994924 C36.7885256,38.5523002 36.6756314,38.3043749 36.4959415,38.1415517 C35.9347632,37.6374513 35.6581724,37.378671 35.1167506,36.8702286 C34.9408238,36.7030635 34.966225,36.6335923 35.1760201,36.7113132 C35.8199875,36.955765 36.1407951,37.0751687 36.7927592,37.3048579 C37.0044358,37.380842 37.2208164,37.325265 37.270678,37.1845858 C37.4268483,36.7430095 37.5077558,36.5241752 37.6705116,36.0865065 C37.7227252,35.9440906 37.8266819,35.9822997 37.9047671,36.1659642 C38.1432561,36.7391017 38.2674397,37.0265388 38.5200405,37.5988079 C38.6037704,37.7842092 38.8464929,37.9895835 39.067107,38.0586205 C39.7416499,38.2683367 40.0939738,38.3043749 40.7967403,38.4363702 C41.0234695,38.4763161 41.0667456,38.5596816 40.8950523,38.6222056 Z M44.9057504,33.7689652 C44.4362738,34.0837734 44.2053907,34.2294186 43.7496214,34.4971912 C43.6048376,34.5838357 43.538871,34.7616631 43.6048376,34.8928675 C43.8091627,35.2918446 43.9136812,35.4882387 44.1231466,35.8740128 C44.1946818,36.0027417 44.1192914,36.0382247 43.9603719,35.9552935 C43.4793297,35.7065002 43.2433063,35.5707572 42.7789699,35.2815298 C42.6251906,35.1862209 42.3883105,35.1565142 42.2486669,35.2171653 C41.8267377,35.4020068 41.619414,35.4882387 41.2090504,35.6574017 C41.0732619,35.7135143 40.9991566,35.659052 41.0432771,35.5381624 C41.1743536,35.1701298 41.2420337,34.9861135 41.3799638,34.6139549 C41.4240844,34.4918275 41.3431253,34.3028601 41.1944863,34.1931105 C40.745999,33.8518964 40.5275382,33.6513763 40.0927583,33.2841689 C39.9514013,33.1653422 39.9736757,33.1042785 40.1454459,33.1414119 C40.6697519,33.2664274 40.9349034,33.3217148 41.4763436,33.4108349 C41.6536824,33.4384786 41.8370182,33.346883 41.8849939,33.2074267 C42.0362031,32.7742044 42.1133069,32.5551178 42.2700847,32.1033288 C42.3223439,31.959334 42.4110133,31.9667607 42.4688412,32.1198325 C42.6491785,32.5976148 42.746415,32.8348556 42.9331776,33.3080993 C42.9931472,33.4607586 43.1931888,33.5981519 43.3773813,33.6055786 C43.9483779,33.6307467 44.2370889,33.6328097 44.8320735,33.6014526 C45.023548,33.5923756 45.0556746,33.6654045 44.9057504,33.7689652 Z M49.898707,26.0489081 C49.4196354,26.5631514 49.1789623,26.8165398 48.7008007,27.3051176 C48.5465697,27.4609771 48.4637672,27.7064326 48.5151775,27.8492261 C48.6766879,28.2799399 48.7590354,28.4922635 48.9319197,28.9057114 C48.9869697,29.0396386 48.9096267,29.1222348 48.7567606,29.0835033 C48.2917928,28.9682419 48.0656783,28.898245 47.6239134,28.7344525 C47.4801465,28.6803216 47.2376535,28.753585 47.0879721,28.8968451 C46.6293737,29.3294254 46.3887005,29.5412824 45.964224,29.9257983 C45.8263715,30.0508592 45.755398,30.013061 45.8049885,29.8483351 C45.9578546,29.3387583 46.0788736,29.0639042 46.2644968,28.5272619 C46.3268261,28.34947 46.2635869,28.1492791 46.1248245,28.0816156 C45.699893,27.8674253 45.4928868,27.749364 45.0825141,27.5020419 C44.9501211,27.4222456 44.9801483,27.3359162 45.1503029,27.3083841 C45.6803298,27.2206548 45.9469356,27.1669905 46.4919761,27.0344632 C46.6675902,26.9901319 46.8650423,26.7997406 46.9291915,26.6163489 C47.1243687,26.0423751 47.221275,25.7535215 47.4219117,25.164615 C47.4842411,24.9723571 47.5752328,24.9443584 47.6198188,25.1025512 C47.7581262,25.5915956 47.8309196,25.8300514 47.9774163,26.2985634 C48.025642,26.4488232 48.2167246,26.5211533 48.3991631,26.4572228 C48.9674065,26.2546987 49.2563053,26.1436371 49.8372875,25.8935152 C50.0270053,25.816052 50.0552128,25.8841823 49.898707,26.0489081 Z M41.1476426,21.008383 C41.6765279,21.0538451 41.8812261,21.0406464 42.5007074,21.0201151 C42.6809202,21.0142491 42.8674992,20.8592868 42.9169598,20.6705946 C43.0707283,20.086431 43.1495713,19.784328 43.3082369,19.1591018 C43.360146,18.9576998 43.4512318,18.9459676 43.5099969,19.1327044 C43.6926582,19.713935 43.7847234,19.9906184 43.9693435,20.5371414 C44.0285983,20.7126349 44.2235023,20.822135 44.407143,20.822135 C44.9007693,20.822135 45.2146725,20.8064921 45.8331744,20.7752064 C46.0192637,20.7659184 46.0608889,20.8392444 45.9007542,20.9653651 C45.4458149,21.322707 45.2112445,21.4454058 44.7660994,21.7998147 C44.6138,21.921047 44.555035,22.1723107 44.6157589,22.3375386 C44.8013584,22.8356664 44.8948928,23.0800863 45.0848997,23.5586606 C45.1475824,23.7165558 45.0765747,23.7766831 44.9262341,23.6970022 C44.4703154,23.4520935 44.2435803,23.3249951 43.7910896,23.056622 C43.6427079,22.9691197 43.4056889,22.9940505 43.266122,23.1094167 C42.8444829,23.4618703 42.635867,23.6310089 42.222553,23.9492436 C42.0883728,24.0519 42.0144268,23.9917727 42.0580109,23.8324109 C42.192191,23.3548143 42.2597708,23.1006176 42.4027657,22.5770701 C42.449288,22.4054873 42.3616302,22.1918643 42.2186353,22.0892079 C41.7558607,21.7582633 41.5389198,21.5715265 41.0952438,21.2009859 C40.9498003,21.0792648 40.973796,20.9932289 41.1476426,21.008383 Z M31.1513812,19.0282411 C31.713573,19.1933663 31.9926784,19.2763825 32.5482354,19.4433223 C32.7313569,19.4959446 32.9180169,19.4197329 32.9657878,19.2745679 C33.1175043,18.8182055 33.1931415,18.5845805 33.3510506,18.1023606 C33.401033,17.94903 33.4961323,17.9694438 33.5571728,18.1536219 C33.7482561,18.7247555 33.8398169,19.0105491 34.0229383,19.576239 C34.0808826,19.7590561 34.2750621,19.9513998 34.4542027,20.005383 C35.0124136,20.1718691 35.2884228,20.2512562 35.8448644,20.4132059 C36.0257742,20.4662819 36.0523136,20.5592782 35.9041356,20.6232415 C35.4498704,20.8151315 35.2291516,20.905406 34.7872715,21.0750676 C34.643959,21.1299581 34.5740721,21.3200335 34.6284777,21.4996752 C34.7970026,22.0463122 34.8783899,22.3153211 35.0438185,22.850617 C35.0973395,23.0257223 35.0261256,23.0515798 34.8859094,22.9032393 C34.4634915,22.4586715 34.2489651,22.2350267 33.8159314,21.7909125 C33.6743883,21.6452939 33.4426113,21.5663604 33.3050491,21.6144463 C32.8857274,21.7600649 32.6796052,21.829472 32.2673607,21.9596668 C32.1337793,22.0045772 32.0585845,21.9306338 32.1041437,21.7977171 C32.2425906,21.3957915 32.3142468,21.1925605 32.4549054,20.7743039 C32.5017915,20.6368507 32.4190773,20.4059477 32.2717839,20.2639581 C31.8122109,19.8239267 31.5773377,19.6061792 31.1031681,19.1829325 C30.9483552,19.0427576 30.9704713,18.9760724 31.1513812,19.0282411 Z M54.52245,18.0388182 C54.06045,18.4215455 53.81795,18.6192727 53.32295,19.032 C53.16095,19.1656364 53.07195,19.3715455 53.12695,19.4838182 C53.29695,19.8265455 53.38495,19.9915455 53.57245,20.3079091 C53.63495,20.4110909 53.55095,20.4838182 53.38595,20.4660909 C52.88845,20.4156364 52.64545,20.3779091 52.16495,20.2915455 C52.00695,20.2629091 51.74145,20.3533636 51.57045,20.4956364 C51.05395,20.9265455 50.79295,21.1447273 50.26545,21.5788182 C50.09295,21.7192727 50.01245,21.7029091 50.08795,21.5379091 C50.31945,21.0406364 50.43545,20.7892727 50.66195,20.2910909 C50.73895,20.1283636 50.67595,19.9597273 50.52395,19.9156364 C50.05695,19.7860909 49.82995,19.7106364 49.37695,19.547 C49.23145,19.4938182 49.27045,19.4088182 49.46795,19.3565455 C50.06945,19.2015455 50.37095,19.1179091 50.97345,18.9479091 C51.16895,18.8924545 51.38695,18.7110909 51.46295,18.547 C51.69045,18.0342727 51.80645,17.7797273 52.03045,17.2674545 C52.10545,17.102 52.19745,17.0806364 52.23945,17.217 C52.36645,17.6329091 52.43495,17.8342727 52.58095,18.2229091 C52.62845,18.3488182 52.82245,18.4010909 53.01345,18.347 C53.60345,18.1692727 53.89445,18.0824545 54.46095,17.9156364 C54.64445,17.8615455 54.67245,17.917 54.52245,18.0388182 Z M35.7502288,27.2175072 C30.3941922,28.6160951 25.1447019,30.5952628 21.1950765,33.0869176 C16.1521934,36.2671149 14.6336768,37.394676 10.9647778,40.846796 C10.7363982,41.0613776 10.749369,41.4260318 10.8220984,41.6209023 C11.0509414,42.2314966 10.995352,42.1365253 11.2964611,42.8577702 C11.400228,43.1059501 11.4025442,43.2793177 11.0124921,43.2080891 C10.1327901,43.0472649 10.0572812,43.0288978 9.42958451,42.9195912 C9.1752631,42.8752413 8.94919963,43.1547797 8.70692259,43.3989278 C8.06486526,44.0458084 7.86752297,44.2527743 7.25881927,44.8674004 C7.06055049,45.0676466 6.96048961,45.0371841 7.03877798,44.8024435 C7.27040039,44.0865744 7.34498281,43.806588 7.51869962,43.1108779 C7.57938469,42.8671777 7.72067436,42.5871913 7.29263614,42.511035 C6.75712513,42.4156157 6.67837351,42.4012804 6.28183594,42.3313958 C5.86908481,42.2592713 5.97609436,42.1096466 6.18270155,41.9734612 C6.75249268,41.5985034 6.94242306,41.4784453 7.85686834,40.8633712 C8.31872343,40.5524743 8.40396047,40.2886152 8.48456507,40.0480509 C8.73888648,39.2976874 8.86303609,38.7901281 9.12384293,37.9586805 C9.20027832,37.7145324 9.37167891,37.6948214 9.43097424,37.8695329 C9.62461058,38.4438409 9.77331217,38.792816 10.0109568,39.4052022 C10.0804435,39.5852894 10.3713612,39.5808096 10.7651193,39.285592 C12.2521352,38.1710222 14.3571197,36.2142534 21.3206158,32.2854846 C27.7203431,28.6756762 35.103539,27.0320442 35.7377212,27.0015817 C36.1073906,26.9827666 36.0629191,27.1364231 35.7502288,27.2175072 Z" id="Combined-Shape" fill="#FEFEFE"></path>
</svg>