<svg id="Calque_1" data-name="Calque 1" xmlns="http://www.w3.org/2000/svg" viewBox="0 0 25.27953 25.27953"><defs><style>.cls-1{fill:#f1893d;}.cls-2{fill:#fff;}</style></defs><title>20cl</title><circle class="cls-1" cx="12.63976" cy="12.63976" r="12.63976"/><g id="texte"><path class="cls-2" d="M4.69274,17.70807v-.88965q1.97022-1.79,2.49023-2.38037A2.59712,2.59712,0,0,0,7.993,12.86774a.91862.91862,0,0,0-.30029-.72559A1.138,1.138,0,0,0,6.913,11.8775a3.79034,3.79034,0,0,0-1.7002.46l-.41992-1a4.32312,4.32312,0,0,1,2.28027-.62011,2.53591,2.53591,0,0,1,1.71.5498,1.87738,1.87738,0,0,1,.64014,1.5,2.0954,2.0954,0,0,1-.15039.76563,3.88193,3.88193,0,0,1-.34473.68945,5.14519,5.14519,0,0,1-.64013.76123q-.44532.4541-.77.75488-.3252.3003-.98487.88965h3.02l-.12988,1.08008Z" transform="translate(-1.53346 -1.53346)"/><path class="cls-2" d="M13.07262,17.80768a2.422,2.422,0,0,1-2.10009-1.00488,4.26081,4.26081,0,0,1-.71973-2.54541,4.27884,4.27884,0,0,1,.7251-2.55958,2.41776,2.41776,0,0,1,2.09472-1.00976A2.3908,2.3908,0,0,1,15.163,11.69781a4.32592,4.32592,0,0,1,.71,2.54981,4.19329,4.19329,0,0,1-.71534,2.5708A2.42824,2.42824,0,0,1,13.07262,17.80768Zm0-1.09961a1.19547,1.19547,0,0,0,1.0752-.64453,3.56573,3.56573,0,0,0,.38476-1.81592,3.56329,3.56329,0,0,0-.38476-1.80957,1.19391,1.19391,0,0,0-1.0752-.65039,1.2223,1.2223,0,0,0-1.09472.65039,3.48208,3.48208,0,0,0-.395,1.80957,3.52712,3.52712,0,0,0,.38965,1.81592A1.2221,1.2221,0,0,0,13.07262,16.70807Z" transform="translate(-1.53346 -1.53346)"/><path class="cls-2" d="M19.10241,17.80768a2.53856,2.53856,0,0,1-1.86426-.67481,2.5124,2.5124,0,0,1-.68555-1.875,2.509,2.509,0,0,1,.69043-1.8706,2.60411,2.60411,0,0,1,1.91016-.67969,3.57051,3.57051,0,0,1,1.38965.25977l-.2002,1.03027a2.45609,2.45609,0,0,0-1.07031-.21973,1.28063,1.28063,0,0,0-1.01953.38965,1.605,1.605,0,0,0-.33984,1.09033,1.62419,1.62419,0,0,0,.33984,1.10059,1.28063,1.28063,0,0,0,1.01953.38965,2.36954,2.36954,0,0,0,1.11035-.23047l.19043,1.02051A3.45651,3.45651,0,0,1,19.10241,17.80768Z" transform="translate(-1.53346 -1.53346)"/><path class="cls-2" d="M22.92272,17.78815q-1.43115,0-1.43066-1.71973l.0205-5.561h1.34961v5.24072a1.52484,1.52484,0,0,0,.12989.76953.63418.63418,0,0,0,.55078.19043,2.62289,2.62289,0,0,0,.30957-.01953l.13965.90918A2.732,2.732,0,0,1,22.92272,17.78815Z" transform="translate(-1.53346 -1.53346)"/></g></svg>