<svg xmlns="http://www.w3.org/2000/svg" viewBox="0 0 28.34646 28.34646"><defs><style>.a{fill:#4ebaea;}.b{fill:#fff;}</style></defs><title>Frais</title><circle class="a" cx="14.17323" cy="14.22551" r="12.63976"/><path class="b" d="M7.59717,12.31352H5.229v1.53613H7.2212v.80078H5.229L5.2212,17.002H4.11768V11.47368H7.59717Z"/><path class="b" d="M11.37354,15.00981l1.208,1.91211V17.002H11.4292l-1.11133-1.75977a.652.652,0,0,0-.15625-.18066.50633.50633,0,0,0-.25195-.04395H9.437V17.002H8.34131V11.48246h1.8086a2.46118,2.46118,0,0,1,1.55175.44727,1.51086,1.51086,0,0,1,.57618,1.26465,1.67429,1.67429,0,0,1-.28028.94336,1.845,1.845,0,0,1-.76855.65625v.01562A.8374.8374,0,0,1,11.37354,15.00981ZM9.437,14.20219h.63281a1.14965,1.14965,0,0,0,.80371-.28027.91082.91082,0,0,0,.30762-.7041.83108.83108,0,0,0-.2793-.67969,1.19952,1.19952,0,0,0-.78418-.23242H9.437Z"/><path class="b" d="M16.86084,17.002,16.437,15.65825H14.35694L13.9253,17.002H12.79737l1.90429-5.51954h1.38379L17.981,17.002Zm-2.248-2.16016h1.56054l-.48828-1.54395c-.01074-.03222-.04883-.15332-.11621-.36425q-.0996-.31494-.14746-.46778h-.05664l-.25586.832Z"/><path class="b" d="M19.70166,11.48246V17.002H18.59717V11.48246Z"/><path class="b" d="M22.67823,11.40239a3.63148,3.63148,0,0,1,1.61523.35156l-.27148.832a3.11465,3.11465,0,0,0-1.32813-.32031q-.94482,0-.94433.65625a.62248.62248,0,0,0,.28027.50781,2.6425,2.6425,0,0,0,.67578.36035c.26465.09863.5293.208.7959.32813a1.91324,1.91324,0,0,1,.68066.51172,1.21849,1.21849,0,0,1,.2793.8125,1.4411,1.4411,0,0,1-.55566,1.1875,2.35148,2.35148,0,0,1-1.50782.44433,4.25749,4.25749,0,0,1-1.88769-.416l.27929-.85645a3.47415,3.47415,0,0,0,1.6084.4082,1.16483,1.16483,0,0,0,.71582-.19629.62211.62211,0,0,0,.25977-.52343.57655.57655,0,0,0-.2793-.48438,2.71475,2.71475,0,0,0-.67676-.332q-.39551-.13623-.79589-.30762a1.75012,1.75012,0,0,1-.67969-.5205,1.34067,1.34067,0,0,1-.28028-.86817,1.38877,1.38877,0,0,1,.52833-1.168A2.38779,2.38779,0,0,1,22.67823,11.40239Z"/></svg>