<?xml version="1.0" encoding="UTF-8"?>
<svg width="40px" height="40px" viewBox="0 0 40 40" version="1.1" xmlns="http://www.w3.org/2000/svg" xmlns:xlink="http://www.w3.org/1999/xlink">
    <!-- Generator: Sketch 47.1 (45422) - http://www.bohemiancoding.com/sketch -->
    <title>UI-icons/Font/Drive/playStore</title>
    <desc>Created with Sketch.</desc>
    <defs>
        <path d="M10,10.9386387 C10,9.46805913 11.5754702,8.53473049 12.8661636,9.24009398 L29.4391977,18.3161126 C30.7806008,19.050851 30.7806008,20.9784263 29.4391636,21.7131833 L12.8661321,30.7892006 C11.575946,31.4956348 10,30.5615461 10,29.0906387 L10,10.9386387 Z M11,10.9386387 L11,29.0906387 C11,29.801846 11.7621547,30.2535874 12.3858364,29.912094 L28.9588023,20.8361126 C29.6073992,20.480851 29.6073992,19.5484263 28.9588364,19.1931833 L12.3862207,10.1173936 C11.762064,9.77629228 11,10.2277487 11,10.9386387 Z M11.1531792,10.3748988 L24.6531792,23.3748988 C24.8520901,23.5664426 25.1686162,23.5604704 25.3601601,23.3615595 C25.551704,23.1626486 25.5457318,22.8461224 25.3468208,22.6545786 L11.8468208,9.65457855 C11.6479099,9.46303469 11.3313838,9.46900688 11.1398399,9.66791782 C10.948296,9.86682875 10.9542682,10.1833549 11.1531792,10.3748988 Z M11.8468208,30.3748988 L25.3468208,17.3748988 C25.5457318,17.1833549 25.551704,16.8668288 25.3601601,16.6679178 C25.1686162,16.4690069 24.8520901,16.4630347 24.6531792,16.6545786 L11.1531792,29.6545786 C10.9542682,29.8461224 10.948296,30.1626486 11.1398399,30.3615595 C11.3313838,30.5604704 11.6479099,30.5664426 11.8468208,30.3748988 Z M11.8468208,30.3748988 L25.3468208,17.3748988 C25.5457318,17.1833549 25.551704,16.8668288 25.3601601,16.6679178 C25.1686162,16.4690069 24.8520901,16.4630347 24.6531792,16.6545786 L11.1531792,29.6545786 C10.9542682,29.8461224 10.948296,30.1626486 11.1398399,30.3615595 C11.3313838,30.5604704 11.6479099,30.5664426 11.8468208,30.3748988 Z M11.1531792,10.3748988 L24.6531792,23.3748988 C24.8520901,23.5664426 25.1686162,23.5604704 25.3601601,23.3615595 C25.551704,23.1626486 25.5457318,22.8461224 25.3468208,22.6545786 L11.8468208,9.65457855 C11.6479099,9.46303469 11.3313838,9.46900688 11.1398399,9.66791782 C10.948296,9.86682875 10.9542682,10.1833549 11.1531792,10.3748988 Z" id="path-1"></path>
    </defs>
    <g id="Charte-Graphique" stroke="none" stroke-width="1" fill="none" fill-rule="evenodd">
        <g id="UI-icons/Font/Drive/playStore">
            <mask id="mask-2" fill="white">
                <use xlink:href="#path-1"></use>
            </mask>
            <use id="Mask" fill="#35343A" fill-rule="nonzero" xlink:href="#path-1"></use>
        </g>
    </g>
</svg>