<?xml version="1.0" encoding="UTF-8"?>
<svg width="40px" height="40px" viewBox="0 0 40 40" version="1.1" xmlns="http://www.w3.org/2000/svg" xmlns:xlink="http://www.w3.org/1999/xlink">
    <!-- Generator: Sketch 47.1 (45422) - http://www.bohemiancoding.com/sketch -->
    <title>UI-icons/Font/Drive/twitter</title>
    <desc>Created with Sketch.</desc>
    <defs>
        <path d="M16.3816401,29.4327883 C13.8359661,29.4327883 11.3621867,28.6814398 9.22560267,27.2577256 C9.03118365,27.1291255 8.95017573,26.8820513 9.03118365,26.6623173 C9.11219158,26.4425833 9.33293817,26.3058825 9.56583595,26.3342352 C11.3834512,26.5448558 13.2648603,26.163106 14.8404644,25.2143007 C13.2709359,24.7434421 11.9940485,23.4949075 11.4806608,21.8312073 C11.4280056,21.6610906 11.4695222,21.4767976 11.5879962,21.3441471 C11.6781176,21.2438998 11.8016546,21.1841565 11.9322799,21.1770683 C10.7120981,20.2252252 9.9384724,18.7083518 9.9384724,17.0426264 C9.9384724,16.854283 10.0427701,16.6517631 10.2098489,16.5646796 C10.3779404,16.4775961 10.578435,16.4593693 10.7333627,16.5667048 C10.7566524,16.5829064 10.7809548,16.599108 10.8062698,16.614297 C10.2321261,15.7647264 9.91315742,14.7501021 9.91315742,13.6939613 C9.91315742,12.7846474 10.1460552,11.8895098 10.5875484,11.1067708 C10.6705815,10.9609565 10.8214588,10.863747 10.9895502,10.8505832 C11.1596669,10.8394446 11.3226953,10.9103265 11.426993,11.0439896 C13.4815565,13.6605456 16.4596103,15.3181702 19.6735996,15.6594161 C19.6573981,15.4913246 19.6492973,15.3232332 19.6492973,15.1541292 C19.6492973,12.3127762 21.8891664,10 24.6424232,10 C25.9274114,10 27.1688578,10.5154129 28.0923481,11.4247269 C28.3596743,11.3761221 28.6300382,11.3356181 28.9014148,11.2961268 C29.5839065,11.1938543 30.2279195,11.09867 30.8567435,10.8758982 C31.0369862,10.8141296 31.2384934,10.8556462 31.3762068,10.9882967 C31.5139203,11.1209471 31.5655629,11.3194166 31.5088573,11.502697 C30.9124365,13.4357486 30.3008267,14.6903588 29.6466877,15.3191828 C29.6497255,15.4437325 29.6507381,15.5692948 29.6507381,15.694857 C29.6507381,22.4478801 24.6869775,29.4327883 16.3816401,29.4327883 M11.4928119,27.3630359 C13.0268995,28.0586914 14.6875619,28.4201893 16.3816401,28.4201893 C24.0530905,28.4201893 28.638139,21.9496814 28.638139,15.694857 C28.638139,15.4994254 28.6351012,15.3070316 28.6270004,15.1156504 C28.6199122,14.9485715 28.6958572,14.7885809 28.8295202,14.6883336 C29.1555771,14.4442972 29.6497255,13.7901582 30.2491841,12.0920296 C29.8451571,12.1791132 29.4441679,12.2378439 29.0502668,12.2965746 C28.703958,12.3492298 28.3586617,12.3998597 28.0184284,12.4697291 C27.8422362,12.50517 27.6619935,12.4464393 27.5414942,12.3127762 C26.7941962,11.4854828 25.7370427,11.012599 24.6424232,11.012599 C22.448121,11.012599 20.6618963,12.8697057 20.6618963,15.1541292 C20.6618963,15.4761357 20.6973373,15.7951044 20.766194,16.1039471 C20.8006224,16.2578621 20.761131,16.419878 20.6598711,16.5403773 C20.556586,16.6629017 20.4097592,16.7378341 20.2467307,16.7196073 C16.7725034,16.5403773 13.502821,14.9394582 11.1576417,12.2996124 C11.0047392,12.7441434 10.9257565,13.2160146 10.9257565,13.6939613 C10.9257565,15.0741338 11.60116,16.3662102 12.7342584,17.1479367 C12.919564,17.2755242 12.9975341,17.5104471 12.9276648,17.7230929 C12.8567829,17.9357387 12.6492001,18.07649 12.4294661,18.0704144 C11.9434185,18.0542128 11.4593962,17.9661167 11.0290416,17.821315 C11.3378843,19.4698263 12.5418646,20.7770917 14.1164561,21.1061864 C14.3442909,21.1537785 14.5103571,21.3512353 14.5184579,21.5851457 C14.5265587,21.8180435 14.3736562,22.0266389 14.1488592,22.08942 C13.7033157,22.2129571 13.2162555,22.2757383 12.7545104,22.2716879 C13.4319391,23.5465501 14.7209777,24.3768813 16.1578558,24.4042215 C16.3705016,24.4082719 16.5578324,24.5449727 16.6266891,24.7454673 C16.6965584,24.9459619 16.6327647,25.1687337 16.4677111,25.3034094 C15.0176692,26.4830873 13.313465,27.185831 11.4928119,27.3630359" id="path-1"></path>
    </defs>
    <g id="Charte-Graphique" stroke="none" stroke-width="1" fill="none" fill-rule="evenodd">
        <g id="UI-icons/Font/Drive/twitter">
            <mask id="mask-2" fill="white">
                <use xlink:href="#path-1"></use>
            </mask>
            <use id="Mask" fill="#35343A" xlink:href="#path-1"></use>
        </g>
    </g>
</svg>